<svg width="42" height="40" viewBox="0 0 42 40" fill="none" xmlns="http://www.w3.org/2000/svg">
<path d="M35.1694 6.56246C32.3261 3.76528 28.7194 1.87097 24.8026 1.1176C20.8858 0.364226 16.8337 0.785413 13.1556 2.32822C9.47754 3.87103 6.33754 6.46662 4.13028 9.78877C1.92302 13.1109 0.746993 17.0114 0.750006 21C0.750006 29.385 5.92501 36.4218 14.25 39.3637C15.2681 39.7237 16.3577 39.8341 17.4273 39.6857C18.4969 39.5374 19.5153 39.1346 20.397 38.5112C21.2787 37.8877 21.998 37.0618 22.4944 36.1029C22.9909 35.1439 23.25 34.0798 23.25 33C23.25 32.4032 23.4871 31.8309 23.909 31.409C24.331 30.987 24.9033 30.75 25.5 30.75H34.1644C35.6958 30.7571 37.1835 30.2403 38.3807 29.2854C39.5778 28.3304 40.4123 26.9946 40.7456 25.5C41.0934 23.9678 41.2626 22.4005 41.25 20.8293C41.2315 18.1671 40.6845 15.5351 39.6407 13.086C38.5968 10.6369 37.077 8.4195 35.1694 6.56246ZM36.3581 24.5006C36.2464 24.998 35.9679 25.4422 35.5688 25.7594C35.1698 26.0766 34.6742 26.2477 34.1644 26.2443H25.5C23.7098 26.2443 21.9929 26.9555 20.727 28.2214C19.4612 29.4872 18.75 31.2041 18.75 32.9943C18.7496 33.3541 18.6629 33.7085 18.4973 34.0278C18.3316 34.3471 18.0918 34.6221 17.798 34.8296C17.5042 35.0372 17.1648 35.1712 16.8085 35.2205C16.4521 35.2698 16.0892 35.233 15.75 35.1131C12.6281 34.0106 10.0031 32.1581 8.16001 29.7581C6.24533 27.2423 5.22162 24.1613 5.25001 21C5.24978 16.8509 6.88674 12.8694 9.80525 9.92031C12.7238 6.97125 16.6881 5.29293 20.8369 5.24996H21C25.149 5.26685 29.1252 6.91344 32.0714 9.83475C35.0176 12.7561 36.6979 16.7181 36.75 20.8668C36.7602 22.0916 36.6287 23.3135 36.3581 24.5081V24.5006ZM24 11.25C24 11.8433 23.8241 12.4233 23.4944 12.9167C23.1648 13.41 22.6962 13.7945 22.1481 14.0216C21.5999 14.2487 20.9967 14.3081 20.4147 14.1923C19.8328 14.0766 19.2982 13.7908 18.8787 13.3713C18.4591 12.9517 18.1734 12.4172 18.0576 11.8352C17.9419 11.2533 18.0013 10.6501 18.2284 10.1019C18.4554 9.55373 18.8399 9.08519 19.3333 8.75555C19.8266 8.42591 20.4067 8.24996 21 8.24996C21.7957 8.24996 22.5587 8.56603 23.1213 9.12864C23.6839 9.69125 24 10.4543 24 11.25ZM15.75 15.75C15.75 16.3433 15.5741 16.9233 15.2444 17.4167C14.9148 17.91 14.4462 18.2945 13.8981 18.5216C13.3499 18.7487 12.7467 18.8081 12.1647 18.6923C11.5828 18.5766 11.0482 18.2908 10.6287 17.8713C10.2091 17.4517 9.92341 16.9172 9.80765 16.3352C9.69189 15.7533 9.7513 15.1501 9.97837 14.6019C10.2054 14.0537 10.5899 13.5852 11.0833 13.2555C11.5766 12.9259 12.1567 12.75 12.75 12.75C13.5457 12.75 14.3087 13.066 14.8713 13.6286C15.4339 14.1912 15.75 14.9543 15.75 15.75ZM15.75 26.25C15.75 26.8433 15.5741 27.4233 15.2444 27.9167C14.9148 28.41 14.4462 28.7945 13.8981 29.0216C13.3499 29.2487 12.7467 29.3081 12.1647 29.1923C11.5828 29.0766 11.0482 28.7908 10.6287 28.3713C10.2091 27.9517 9.92341 27.4172 9.80765 26.8352C9.69189 26.2533 9.7513 25.6501 9.97837 25.1019C10.2054 24.5537 10.5899 24.0852 11.0833 23.7555C11.5766 23.4259 12.1567 23.25 12.75 23.25C13.5457 23.25 14.3087 23.566 14.8713 24.1286C15.4339 24.6912 15.75 25.4543 15.75 26.25ZM32.25 15.75C32.25 16.3433 32.0741 16.9233 31.7444 17.4167C31.4148 17.91 30.9462 18.2945 30.3981 18.5216C29.8499 18.7487 29.2467 18.8081 28.6647 18.6923C28.0828 18.5766 27.5482 18.2908 27.1287 17.8713C26.7091 17.4517 26.4234 16.9172 26.3076 16.3352C26.1919 15.7533 26.2513 15.1501 26.4784 14.6019C26.7054 14.0537 27.0899 13.5852 27.5833 13.2555C28.0766 12.9259 28.6567 12.75 29.25 12.75C30.0457 12.75 30.8087 13.066 31.3713 13.6286C31.9339 14.1912 32.25 14.9543 32.25 15.75Z" fill="#1FFFA5"/>
</svg>
