<svg width="15" height="13" viewBox="0 0 15 13" fill="none" xmlns="http://www.w3.org/2000/svg">
<path d="M14.0829 4.37513L8.08288 0.375136C7.95963 0.292906 7.81479 0.249023 7.66663 0.249023C7.51847 0.249023 7.37363 0.292906 7.25038 0.375136L1.25038 4.37513C1.14755 4.44374 1.06327 4.5367 1.00504 4.64574C0.946817 4.75478 0.916444 4.87652 0.916627 5.00013V11.5001C0.916627 11.8317 1.04832 12.1496 1.28274 12.384C1.51716 12.6184 1.83511 12.7501 2.16663 12.7501H13.1666C13.4981 12.7501 13.8161 12.6184 14.0505 12.384C14.2849 12.1496 14.4166 11.8317 14.4166 11.5001V5.00013C14.4168 4.87652 14.3864 4.75478 14.3282 4.64574C14.27 4.5367 14.1857 4.44374 14.0829 4.37513ZM7.66663 1.90139L12.3454 5.02076L8.51725 7.75013H6.816L2.98788 5.02076L7.66663 1.90139ZM2.41663 11.2501V6.45576L6.14038 9.11076C6.26805 9.20181 6.42106 9.25056 6.57788 9.25013H8.75913C8.91595 9.25056 9.06895 9.20181 9.19663 9.11076L12.9166 6.45576V11.2501H2.41663Z" fill="#1FFFA5"/>
</svg>
