<svg width="26" height="36" viewBox="0 0 26 36" fill="none" xmlns="http://www.w3.org/2000/svg">
<path d="M25.8966 16.5066C25.8368 16.2391 25.7126 15.9902 25.535 15.7815C25.3574 15.5727 25.1316 15.4104 24.8771 15.3085L17.6799 12.4299L19.1691 2.50036C19.2238 2.1438 19.1628 1.77911 18.995 1.45977C18.8272 1.14044 18.5615 0.883267 18.2369 0.725984C17.9123 0.568702 17.5458 0.519584 17.1912 0.585836C16.8366 0.652089 16.5126 0.830224 16.2666 1.09411L0.516617 17.9691C0.3294 18.1696 0.193883 18.4127 0.121801 18.6774C0.04972 18.9421 0.0432479 19.2203 0.102945 19.4881C0.162643 19.7558 0.286711 20.0049 0.464403 20.2139C0.642095 20.4229 0.868054 20.5854 1.12271 20.6874L8.3199 23.566L6.83068 33.4997C6.77601 33.8563 6.83704 34.221 7.00482 34.5403C7.17259 34.8597 7.43828 35.1168 7.76291 35.2741C8.08754 35.4314 8.45403 35.4805 8.80862 35.4143C9.16321 35.348 9.48724 35.1699 9.73318 34.906L25.4832 18.031C25.6712 17.8299 25.8072 17.5859 25.8792 17.3202C25.9513 17.0545 25.9573 16.7752 25.8966 16.5066ZM10.9749 28.6243L11.8566 22.7504C11.913 22.3744 11.8407 21.9905 11.6516 21.6607C11.4625 21.3309 11.1675 21.0747 10.8146 20.9335L4.66646 18.474L15.0249 7.37583L14.1432 13.2497C14.0868 13.6257 14.1591 14.0096 14.3482 14.3394C14.5373 14.6692 14.8323 14.9254 15.1852 15.0666L21.3333 17.5261L10.9749 28.6243Z" fill="#1FFFA5"/>
</svg>
