<svg width="48" height="48" viewBox="0 0 48 48" fill="none" xmlns="http://www.w3.org/2000/svg">
<path d="M42.7219 8.79195C42.666 7.87835 42.2778 7.01675 41.6306 6.36953C40.9834 5.72231 40.1218 5.33415 39.2082 5.2782C36.7463 5.13382 30.4613 5.35695 25.2432 10.5732L24.5625 11.2501H13.9425C13.4499 11.2484 12.9618 11.3447 12.5066 11.5333C12.0515 11.722 11.6384 11.9992 11.2913 12.3488L4.85067 18.7857C4.35761 19.2785 4.01169 19.899 3.85174 20.5776C3.6918 21.2561 3.72416 21.9658 3.9452 22.627C4.16623 23.2881 4.56719 23.8746 5.10306 24.3205C5.63892 24.7664 6.28848 25.0541 6.9788 25.1513L13.9425 26.1226L21.8775 34.0576L22.8507 41.0288C22.9455 41.7202 23.2324 42.3711 23.6789 42.9075C24.1254 43.4438 24.7135 43.844 25.3763 44.0626C25.7618 44.1888 26.1651 44.2522 26.5707 44.2501C27.0621 44.2498 27.5486 44.1524 28.0023 43.9635C28.456 43.7746 28.8679 43.498 29.2144 43.1495L35.6532 36.7088C36.0023 36.3615 36.2791 35.9482 36.4674 35.4931C36.6556 35.038 36.7517 34.5501 36.75 34.0576V23.4376L37.425 22.7644C42.6432 17.5388 42.8663 11.2501 42.7219 8.79195ZM14.25 15.7501H20.0625L14.2032 21.6151L9.09755 20.9026L14.25 15.7501ZM28.425 13.7569C29.7089 12.4624 31.2408 11.4404 32.9291 10.7519C34.6173 10.0634 36.427 9.72264 38.25 9.75007C38.2786 11.5737 37.9382 13.3842 37.2493 15.0729C36.5604 16.7616 35.5372 18.2936 34.2413 19.5769L24 29.8126L18.1875 24.0001L28.425 13.7569ZM32.25 33.7501L27.0957 38.9044L26.3832 33.7988L32.25 27.9376V33.7501ZM18.75 37.8751C17.1169 40.097 13.8394 42.7501 7.50005 42.7501C6.90331 42.7501 6.33101 42.513 5.90906 42.0911C5.4871 41.6691 5.25005 41.0968 5.25005 40.5001C5.25005 34.1551 7.89755 30.8776 10.125 29.2501C10.3607 29.0521 10.6345 28.9045 10.9295 28.8166C11.2244 28.7286 11.5343 28.7021 11.8399 28.7388C12.1456 28.7754 12.4404 28.8743 12.7063 29.0294C12.9721 29.1845 13.2033 29.3925 13.3856 29.6406C13.5678 29.8886 13.6973 30.1714 13.7658 30.4715C13.8344 30.7716 13.8407 31.0825 13.7843 31.3851C13.7279 31.6877 13.61 31.9755 13.4379 32.2307C13.2658 32.4859 13.0432 32.7031 12.7838 32.8688C11.6813 33.6807 10.4082 35.2126 9.93755 38.0626C12.7894 37.5919 14.3194 36.3188 15.1313 35.2163C15.297 34.9569 15.5142 34.7343 15.7694 34.5622C16.0246 34.3901 16.3124 34.2723 16.615 34.2158C16.9176 34.1594 17.2285 34.1657 17.5286 34.2343C17.8287 34.3029 18.1115 34.4323 18.3595 34.6145C18.6076 34.7968 18.8156 35.028 18.9707 35.2938C19.1258 35.5597 19.2248 35.8546 19.2614 36.1602C19.298 36.4658 19.2715 36.7757 19.1835 37.0706C19.0956 37.3656 18.948 37.6394 18.75 37.8751Z" fill="#1FFFA5"/>
</svg>
