<svg width="14" height="14" viewBox="0 0 14 14" fill="none" xmlns="http://www.w3.org/2000/svg">
<path d="M13.6488 12.1249C12.7919 10.621 11.4538 9.44915 9.85003 8.79805C10.6476 8.19988 11.2367 7.36594 11.534 6.41434C11.8312 5.46275 11.8215 4.44175 11.5063 3.49597C11.191 2.55018 10.5862 1.72757 9.7774 1.14465C8.96864 0.561724 7.99697 0.248047 7.00003 0.248047C6.00309 0.248047 5.03142 0.561724 4.22265 1.14465C3.41389 1.72757 2.80904 2.55018 2.49378 3.49597C2.17852 4.44175 2.16883 5.46275 2.46609 6.41434C2.76334 7.36594 3.35247 8.19988 4.15003 8.79805C2.54623 9.44915 1.20818 10.621 0.351278 12.1249C0.298181 12.2103 0.262792 12.3055 0.247215 12.4048C0.231638 12.5041 0.236191 12.6056 0.260603 12.7031C0.285016 12.8006 0.328788 12.8923 0.38932 12.9725C0.449851 13.0528 0.525906 13.1201 0.612962 13.1704C0.700017 13.2207 0.796297 13.253 0.896077 13.2653C0.995858 13.2777 1.0971 13.2698 1.19379 13.2423C1.29048 13.2147 1.38064 13.168 1.45891 13.1049C1.53718 13.0418 1.60196 12.9636 1.6494 12.8749C2.7819 10.9174 4.7819 9.74992 7.00003 9.74992C9.21815 9.74992 11.2182 10.918 12.3507 12.8749C12.4535 13.0403 12.6166 13.1591 12.8054 13.2064C12.9943 13.2537 13.1942 13.2256 13.3627 13.1282C13.5313 13.0308 13.6554 12.8717 13.7088 12.6845C13.7622 12.4972 13.7407 12.2966 13.6488 12.1249ZM3.75003 4.99992C3.75003 4.35713 3.94064 3.72878 4.29775 3.19432C4.65487 2.65986 5.16245 2.2433 5.75631 1.99731C6.35017 1.75133 7.00363 1.68697 7.63407 1.81237C8.26451 1.93777 8.84361 2.2473 9.29813 2.70182C9.75265 3.15635 10.0622 3.73544 10.1876 4.36588C10.313 4.99632 10.2486 5.64978 10.0026 6.24364C9.75665 6.8375 9.34009 7.34508 8.80563 7.7022C8.27117 8.05931 7.64282 8.24992 7.00003 8.24992C6.13838 8.24893 5.31231 7.9062 4.70303 7.29692C4.09375 6.68764 3.75102 5.86157 3.75003 4.99992Z" fill="#1FFFA5"/>
</svg>
