<svg width="48" height="48" viewBox="0 0 48 48" fill="none" xmlns="http://www.w3.org/2000/svg">
<path d="M42.75 9.00007V18.0001C42.75 18.5968 42.5129 19.1691 42.091 19.5911C41.669 20.013 41.0967 20.2501 40.5 20.2501H31.5C30.9033 20.2501 30.331 20.013 29.909 19.5911C29.4871 19.1691 29.25 18.5968 29.25 18.0001C29.25 17.4033 29.4871 16.831 29.909 16.4091C30.331 15.9871 30.9033 15.7501 31.5 15.7501H35.0625L33.6 14.2876C30.9522 11.6266 27.3564 10.1254 23.6025 10.1138H23.5219C19.8015 10.1057 16.2275 11.5626 13.5731 14.1694C13.1465 14.5867 12.5715 14.8173 11.9748 14.8106C11.3781 14.8039 10.8085 14.5605 10.3912 14.1338C9.97403 13.7072 9.74339 13.1322 9.75007 12.5355C9.75676 11.9388 10.0002 11.3692 10.4269 10.9519C13.9223 7.51968 18.6287 5.60194 23.5275 5.61382H23.625C28.567 5.6273 33.3014 7.60267 36.7875 11.1057L38.25 12.5626V9.00007C38.25 8.40334 38.4871 7.83104 38.909 7.40908C39.331 6.98713 39.9033 6.75007 40.5 6.75007C41.0967 6.75007 41.669 6.98713 42.091 7.40908C42.5129 7.83104 42.75 8.40334 42.75 9.00007ZM34.4269 33.8307C31.7711 36.4389 28.1948 37.8959 24.4725 37.8863H24.3919C20.638 37.8747 17.0422 36.3735 14.3944 33.7126L12.9375 32.2501H16.5C17.0967 32.2501 17.669 32.013 18.091 31.5911C18.5129 31.1691 18.75 30.5968 18.75 30.0001C18.75 29.4033 18.5129 28.831 18.091 28.4091C17.669 27.9871 17.0967 27.7501 16.5 27.7501H7.5C6.90326 27.7501 6.33097 27.9871 5.90901 28.4091C5.48705 28.831 5.25 29.4033 5.25 30.0001V39.0001C5.25 39.5968 5.48705 40.1691 5.90901 40.5911C6.33097 41.013 6.90326 41.2501 7.5 41.2501C8.09674 41.2501 8.66903 41.013 9.09099 40.5911C9.51295 40.1691 9.75 39.5968 9.75 39.0001V35.4376L11.2125 36.9001C14.6995 40.401 19.4338 42.3743 24.375 42.3863H24.48C29.3788 42.3982 34.0852 40.4805 37.5806 37.0482C37.7919 36.8416 37.9604 36.5954 38.0765 36.3237C38.1926 36.052 38.2541 35.7601 38.2574 35.4646C38.2607 35.1692 38.2058 34.8759 38.0958 34.6017C37.9858 34.3275 37.8228 34.0776 37.6162 33.8663C37.4097 33.6551 37.1635 33.4866 36.8918 33.3704C36.6201 33.2543 36.3282 33.1928 36.0327 33.1895C35.7372 33.1862 35.444 33.2411 35.1698 33.3511C34.8955 33.4612 34.6456 33.6241 34.4344 33.8307H34.4269Z" fill="#1FFFA5"/>
</svg>
