<svg width="14" height="14" viewBox="0 0 14 14" fill="none" xmlns="http://www.w3.org/2000/svg">
<path d="M13.6431 6.1779L10.8306 8.60478L11.6875 12.2342C11.7347 12.4312 11.7226 12.6378 11.6525 12.8279C11.5824 13.018 11.4575 13.1831 11.2937 13.3022C11.1298 13.4214 10.9343 13.4894 10.7319 13.4975C10.5294 13.5056 10.3291 13.4536 10.1562 13.3479L6.99996 11.4054L3.84184 13.3479C3.66898 13.453 3.4689 13.5045 3.2668 13.4961C3.06469 13.4877 2.8696 13.4196 2.70609 13.3006C2.54257 13.1815 2.41795 13.0167 2.3479 12.8269C2.27786 12.6372 2.26553 12.4309 2.31246 12.2342L3.17246 8.60478L0.359961 6.1779C0.207022 6.04572 0.0964141 5.87141 0.0419501 5.67674C-0.0125139 5.48208 -0.00842004 5.27568 0.0537205 5.08332C0.115861 4.89096 0.233294 4.72118 0.391354 4.59517C0.549414 4.46915 0.741096 4.3925 0.942461 4.37478L4.62996 4.07728L6.05246 0.634776C6.12946 0.447162 6.2605 0.286682 6.42894 0.173738C6.59738 0.0607938 6.7956 0.000488281 6.9984 0.000488281C7.2012 0.000488281 7.39942 0.0607938 7.56785 0.173738C7.73629 0.286682 7.86734 0.447162 7.94434 0.634776L9.36621 4.07728L13.0537 4.37478C13.2555 4.39184 13.4477 4.46807 13.6064 4.59391C13.765 4.71974 13.883 4.8896 13.9455 5.08219C14.008 5.27478 14.0123 5.48153 13.9579 5.67656C13.9034 5.87158 13.7926 6.0462 13.6393 6.17853L13.6431 6.1779Z" fill="#1FFFA5"/>
</svg>
