<svg width="14" height="14" viewBox="0 0 14 14" fill="none" xmlns="http://www.w3.org/2000/svg">
<path d="M12.3333 8.67521L9.39013 7.35584L9.37888 7.35084C9.18758 7.26836 8.97865 7.23516 8.7712 7.25427C8.56375 7.27338 8.3644 7.34418 8.19138 7.46021C8.16713 7.47645 8.14376 7.49398 8.12138 7.51271L6.72701 8.70021C5.91451 8.25959 5.07513 7.42709 4.63388 6.62459L5.82513 5.20834C5.84428 5.18548 5.86202 5.16148 5.87826 5.13646C5.99125 4.96406 6.05984 4.76639 6.07795 4.56106C6.09605 4.35572 6.06309 4.1491 5.98201 3.95959C5.98008 3.95596 5.97841 3.9522 5.97701 3.94834L4.65826 1.00021C4.55001 0.753666 4.36526 0.548519 4.13136 0.415132C3.89745 0.281745 3.62682 0.227207 3.35951 0.259589C2.45224 0.378772 1.61937 0.824135 1.01647 1.5125C0.41356 2.20086 0.0818385 3.08515 0.0832565 4.00021C0.0832565 9.10084 4.23263 13.2502 9.33326 13.2502C10.2483 13.2516 11.1326 12.9199 11.821 12.317C12.5093 11.7141 12.9547 10.8812 13.0739 9.97396C13.1063 9.70665 13.0517 9.43602 12.9183 9.20211C12.785 8.96821 12.5798 8.78346 12.3333 8.67521ZM9.33326 11.7502C7.27859 11.7477 5.30879 10.9304 3.85592 9.47755C2.40305 8.02468 1.58574 6.05488 1.58326 4.00021C1.58183 3.4824 1.75762 2.97968 2.08143 2.5756C2.40524 2.17152 2.85757 1.8904 3.36326 1.77896L4.53951 4.40396L3.34201 5.83021C3.32265 5.85328 3.3047 5.87749 3.28826 5.90271C3.17022 6.08306 3.10083 6.29086 3.08681 6.50594C3.0728 6.72102 3.11463 6.93607 3.20826 7.13021C3.79701 8.33521 5.01013 9.54021 6.22763 10.1302C6.42307 10.2229 6.6392 10.2632 6.85491 10.2473C7.07061 10.2315 7.2785 10.1599 7.45826 10.0396C7.48243 10.0233 7.50559 10.0055 7.52763 9.98646L8.92951 8.79459L11.5545 9.97021C11.4431 10.4759 11.162 10.9282 10.7579 11.252C10.3538 11.5758 9.85107 11.7516 9.33326 11.7502Z" fill="#1FFFA5"/>
</svg>
